<?xml version="1.0" encoding="UTF-8"?>
<svg version="1.1" xmlns="http://www.w3.org/2000/svg" width="500" height="500">
<path d="M0 0 C2.39885657 0.00096982 4.79447531 -0.04073729 7.19287109 -0.08496094 C29.27226874 -0.25438476 48.1835732 8.6609243 64.31787109 23.47753906 C65.6346865 24.7850593 66.9083375 26.13602759 68.16552734 27.50097656 C68.87966797 27.21351562 69.59380859 26.92605469 70.32958984 26.62988281 C73.05890881 25.54341837 75.79156567 24.47426011 78.54052734 23.43847656 C79.43513672 23.096875 80.32974609 22.75527344 81.25146484 22.40332031 C94.1124326 18.42090268 108.36443931 20.37231873 120.16552734 26.50097656 C131.86841902 33.56890719 140.17303017 42.7001447 145.16552734 55.50097656 C145.28025391 56.56960937 145.39498047 57.63824219 145.51318359 58.73925781 C145.72845703 59.650625 145.94373047 60.56199219 146.16552734 61.50097656 C148.3070928 62.65690159 148.3070928 62.65690159 151.16552734 63.50097656 C157.38098622 67.1295499 163.24232572 71.41991899 169.16552734 75.50097656 C169.84083496 75.95730469 170.51614258 76.41363281 171.21191406 76.88378906 C180.53570542 83.22463165 188.63779436 90.60729422 196.60302734 98.56347656 C197.97056152 99.92835205 197.97056152 99.92835205 199.36572266 101.32080078 C205.36543936 107.42032996 210.82844081 113.81989123 216.16552734 120.50097656 C217.45537368 122.04416655 218.7467699 123.58606405 220.04052734 125.12597656 C230.07589796 137.80956998 237.46569097 151.51401286 244.11230469 166.20800781 C244.98364178 168.10499389 245.9059927 169.97845523 246.84130859 171.84472656 C254.11512837 186.43157808 258.53664033 202.63985942 262.04052734 218.50097656 C262.32682007 219.78657471 262.32682007 219.78657471 262.61889648 221.09814453 C265.65677207 235.70252148 266.54658986 250.25035356 266.47802734 265.12597656 C266.47529312 266.3672229 266.47529312 266.3672229 266.47250366 267.63354492 C266.42272455 281.11509122 265.70166423 294.2309614 263.16552734 307.50097656 C263.00455566 308.37963379 262.84358398 309.25829102 262.67773438 310.16357422 C254.96917505 351.12038652 236.55563577 389.9233556 208.16552734 420.50097656 C206.41329278 422.41560058 204.66331592 424.33229311 202.91552734 426.25097656 C202.07763672 427.16878906 201.23974609 428.08660156 200.37646484 429.03222656 C198.70045627 430.90367076 197.09939313 432.78408551 195.54052734 434.75097656 C192.38608654 438.40348696 188.84968971 441.39593002 185.16552734 444.50097656 C184.31216797 445.25378906 183.45880859 446.00660156 182.57958984 446.78222656 C174.94992421 453.38763572 166.82722314 458.88251747 158.25878906 464.20019531 C156.32461193 465.40211924 154.40273309 466.62159317 152.48193359 467.84472656 C133.04704882 480.04641719 111.79043671 488.82181252 89.66552734 494.75097656 C88.80137207 494.98526367 87.9372168 495.21955078 87.046875 495.4609375 C84.09823152 496.21472606 81.14399684 496.87460126 78.16552734 497.50097656 C77.53598145 497.63441467 76.90643555 497.76785278 76.2578125 497.90533447 C62.49203823 500.71820201 48.86412881 500.96486577 34.85009766 500.89208984 C31.17100966 500.87600054 27.49301985 500.8920272 23.81396484 500.91113281 C10.3223592 500.92378208 -2.61805217 500.2893655 -15.83447266 497.50097656 C-16.91567383 497.27667969 -17.996875 497.05238281 -19.11083984 496.82128906 C-21.83036059 496.21099199 -24.51823943 495.5376694 -27.20947266 494.81347656 C-28.16660156 494.55783936 -29.12373047 494.30220215 -30.10986328 494.03881836 C-52.32538848 487.90541752 -74.81121787 478.60943785 -93.83447266 465.50097656 C-95.64451156 464.37202111 -97.45710369 463.2471509 -99.27197266 462.12597656 C-108.33595931 456.34155203 -116.70441081 449.86037411 -124.58056641 442.54394531 C-126.14291737 441.1278109 -127.76044041 439.77112906 -129.41650391 438.46582031 C-131.57679267 436.71036757 -133.29758355 434.99677929 -135.08447266 432.87597656 C-137.75425346 429.75545355 -140.45786393 426.67479738 -143.20947266 423.62597656 C-143.97001953 422.7790625 -144.73056641 421.93214844 -145.51416016 421.05957031 C-147.0257729 419.39272461 -148.55125017 417.73831537 -150.09228516 416.09863281 C-178.00205561 386.09806074 -195.66196636 342.55329104 -201.83447266 302.50097656 C-202.01179932 301.3547583 -202.18912598 300.20854004 -202.37182617 299.02758789 C-203.8771122 288.31105003 -204.19375574 277.7507515 -204.14697266 266.93847656 C-204.14514984 266.06146088 -204.14332703 265.18444519 -204.14144897 264.28085327 C-204.09335763 250.50651999 -203.53011254 237.04755321 -200.83447266 223.50097656 C-200.66286621 222.63102051 -200.49125977 221.76106445 -200.31445312 220.86474609 C-195.63228881 197.96440178 -187.6278417 176.20951401 -176.83447266 155.50097656 C-176.37427734 154.61023438 -175.91408203 153.71949219 -175.43994141 152.80175781 C-165.26331037 133.59792238 -151.83253429 117.15092245 -136.83447266 101.50097656 C-136.23908691 100.87304199 -135.64370117 100.24510742 -135.03027344 99.59814453 C-126.8618596 91.02305583 -118.68576756 83.27938769 -108.77246094 76.77539062 C-106.56938444 75.32665551 -104.38755255 73.8484621 -102.20556641 72.36816406 C-99.13063011 70.29169668 -96.0540253 68.21806669 -92.96337891 66.16503906 C-92.26954102 65.70323242 -91.57570313 65.24142578 -90.86083984 64.765625 C-88.95444091 63.57584832 -87.02612171 62.60537608 -85.01025391 61.61816406 C-81.0877618 59.00316932 -79.96602428 56.27643485 -78.45947266 52.00097656 C-75.36024071 44.1594391 -71.28836731 37.97169903 -65.83447266 31.50097656 C-65.13580078 30.63988281 -64.43712891 29.77878906 -63.71728516 28.89160156 C-55.84281531 19.60376534 -46.56003215 12.59428558 -35.77197266 7.06347656 C-35.16023193 6.74556152 -34.54849121 6.42764648 -33.91821289 6.10009766 C-22.98919288 0.79192047 -11.93625699 -0.03387545 0 0 Z M-2.83447266 228.50097656 C-4.56341124 234.35359477 -2.56987292 240.73066059 -0.15478516 246.11816406 C4.75728439 254.98314164 12.64107404 261.2146346 22.22802734 264.37597656 C31.38497599 266.72499411 38.59089192 265.35562919 47.16552734 261.50097656 C51.91847216 258.53640462 55.92908272 255.75777423 58.16552734 250.50097656 C58.82552734 250.50097656 59.48552734 250.50097656 60.16552734 250.50097656 C60.81645324 249.25362089 61.46104404 248.00295824 62.10302734 246.75097656 C62.46267578 246.05488281 62.82232422 245.35878906 63.19287109 244.64160156 C64.82342729 241.05306825 65.31979496 237.86654422 65.35302734 233.93847656 C65.36720703 233.1740625 65.38138672 232.40964844 65.39599609 231.62207031 C65.29786484 229.19944154 65.29786484 229.19944154 63.16552734 226.50097656 C60.04924116 225.4622145 57.84963658 225.36197749 54.58007812 225.33984375 C53.43523956 225.33023621 52.290401 225.32062866 51.11087036 225.31072998 C49.25460526 225.30435516 49.25460526 225.30435516 47.36083984 225.29785156 C46.08957245 225.29215149 44.81830505 225.28645142 43.5085144 225.28057861 C40.81683776 225.27112523 38.12527271 225.26423 35.43359375 225.26074219 C31.99139935 225.25525937 28.54960089 225.23123157 25.10753059 225.20277023 C21.81699711 225.17962193 18.52644335 225.17769287 15.23583984 225.17285156 C14.00237823 225.16050476 12.76891663 225.14815796 11.49807739 225.13543701 C9.77136307 225.13993866 9.77136307 225.13993866 8.00976562 225.14453125 C6.49444748 225.13906281 6.49444748 225.13906281 4.94851685 225.13348389 C1.6874058 225.56411233 -0.20446144 226.55236341 -2.83447266 228.50097656 Z " fill="#9489E6" transform="translate(218.83447265625,-0.5009765625)"/>
<path d="M0 0 C2.93280794 2.47902104 3.93871822 4.969262 5.1875 8.5625 C5.53167969 9.53316406 5.87585938 10.50382812 6.23046875 11.50390625 C7 14 7 14 7 16 C7.65355469 16.21914063 8.30710937 16.43828125 8.98046875 16.6640625 C16.52728163 20.00301464 23.22672574 25.33324644 30 30 C30.67530762 30.45632812 31.35061523 30.91265625 32.04638672 31.3828125 C41.37017808 37.72365509 49.47226702 45.10631766 57.4375 53.0625 C58.34918945 53.97241699 59.26087891 54.88233398 60.20019531 55.81982422 C66.19991202 61.9193534 71.66291347 68.31891466 77 75 C78.28984633 76.54318998 79.58124255 78.08508748 80.875 79.625 C90.91037061 92.30859341 98.30016362 106.0130363 104.94677734 120.70703125 C105.81811443 122.60401733 106.74046536 124.47747867 107.67578125 126.34375 C114.94960102 140.93060151 119.37111299 157.13888286 122.875 173 C123.16129272 174.28559814 123.16129272 174.28559814 123.45336914 175.59716797 C126.49124472 190.20154492 127.38106251 204.749377 127.3125 219.625 C127.31067719 220.45249756 127.30885437 221.27999512 127.30697632 222.13256836 C127.2571972 235.61411466 126.53613689 248.72998484 124 262 C123.83902832 262.87865723 123.67805664 263.75731445 123.51220703 264.66259766 C115.80364771 305.61940996 97.39010842 344.42237903 69 375 C67.24776543 376.91462402 65.49778857 378.83131654 63.75 380.75 C62.91210938 381.6678125 62.07421875 382.585625 61.2109375 383.53125 C59.53492893 385.4026942 57.93386578 387.28310895 56.375 389.25 C53.2205592 392.9025104 49.68416237 395.89495346 46 399 C45.14664063 399.7528125 44.29328125 400.505625 43.4140625 401.28125 C35.78439686 407.88665915 27.66169579 413.38154091 19.09326172 418.69921875 C17.15908458 419.90114268 15.23720575 421.12061661 13.31640625 422.34375 C-3.10875783 432.65952684 -20.26855195 440.07031566 -39 445 C-41.09898403 445.5650087 -43.19794128 446.13011693 -45.296875 446.6953125 C-49.35337185 447.77630034 -53.41154682 448.84990195 -57.4765625 449.8984375 C-58.30236816 450.11161621 -59.12817383 450.32479492 -59.97900391 450.54443359 C-62 451 -62 451 -64 451 C-64.23355291 422.82781775 -64.40991996 394.65578047 -64.51812172 366.48282528 C-64.56969619 353.40171393 -64.64001528 340.32120391 -64.75439453 327.24047852 C-64.85403487 315.83990521 -64.91857454 304.43976736 -64.94088495 293.03877074 C-64.95392786 287.00117407 -64.98459893 280.96482318 -65.05730057 274.92762566 C-65.12517902 269.24490885 -65.14611637 263.5639507 -65.13107681 257.880867 C-65.133828 255.79544833 -65.15372295 253.70997089 -65.19205475 251.62490273 C-65.4681296 235.83312862 -65.4681296 235.83312862 -61.79726791 231.2496357 C-59.25220132 229.44486246 -56.86823618 228.2015806 -54 227 C-51.60498486 225.16173528 -49.25652936 223.28205462 -46.91015625 221.3828125 C-45 220 -45 220 -42 219 C-40.79117904 216.99983534 -40.79117904 216.99983534 -40 215 C-39.34 215 -38.68 215 -38 215 C-37.71125 214.401875 -37.4225 213.80375 -37.125 213.1875 C-36 211 -36 211 -34 208 C-33.34 208 -32.68 208 -32 208 C-31.34 205.69 -30.68 203.38 -30 201 C-29.34 201 -28.68 201 -28 201 C-27.71898437 200.28070313 -27.43796875 199.56140625 -27.1484375 198.8203125 C-26.05186715 196.12737443 -24.85871023 193.50743903 -23.625 190.875 C-20.10330219 183.14393557 -16.75795251 175.52696569 -16 167 C-15.34 167 -14.68 167 -14 167 C-14 164.36 -14 161.72 -14 159 C-12.87722656 158.95101562 -11.75445312 158.90203125 -10.59765625 158.8515625 C-2.86031682 158.47838726 4.48945434 158.03675815 12 156 C13.33264407 155.66392164 14.66580492 155.32986722 16 155 C16 154.34 16 153.68 16 153 C16.763125 152.773125 17.52625 152.54625 18.3125 152.3125 C21.66878673 150.67338323 22.3138413 149.29900614 24 146 C24.721875 144.989375 25.44375 143.97875 26.1875 142.9375 C29.98229563 136.26389389 28.5402217 127.19392362 26.6953125 120.03515625 C25.00515004 115.0881077 22.69414932 110.64045899 18 108 C15.85266073 107.29485154 15.85266073 107.29485154 14 107 C14 106.34 14 105.68 14 105 C11.69 104.67 9.38 104.34 7 104 C6.99857498 102.95367401 6.99714996 101.90734802 6.99568176 100.82931519 C6.97893137 90.91478544 6.93591402 81.00066192 6.86790943 71.08634758 C6.83378102 65.99061196 6.80855159 60.89517166 6.80444336 55.79931641 C6.80012989 50.87123135 6.77141704 45.94381087 6.72656822 41.01593399 C6.71368995 39.14635226 6.70925077 37.2766906 6.71384621 35.40707016 C6.73576445 23.7701437 5.5669268 14.74124743 1 4 C0.63326342 2.67546492 0.28341359 1.34482922 0 0 Z " fill="#9489E6" transform="translate(358,45)"/>
<path d="M0 0 C6.53899309 5.58538993 6.53899309 5.58538993 8.82421875 7.640625 C29.98380707 26.62658684 54.41805132 37.10642122 82 43 C82 49.93 82 56.86 82 64 C88.5959973 63.92136504 88.5959973 63.92136504 95.19165039 63.81982422 C100.5385804 63.78784682 104.94896699 64.22057922 110 66 C110 66.66 110 67.32 110 68 C110.721875 68.061875 111.44375 68.12375 112.1875 68.1875 C116.69596497 69.48994544 118.9417403 72.58898706 121.6875 76.25 C125.17492491 83.55698553 126.07937577 92.00825819 125 100 C123.72624849 103.02960021 122.00457921 105.41529901 120 108 C119.30806838 109.16404381 118.62016353 110.33049674 117.9375 111.5 C117.298125 112.325 116.65875 113.15 116 114 C114.68 114 113.36 114 112 114 C112 114.66 112 115.32 112 116 C104.87510924 119.99688994 98.01890418 120.15113175 90.0625 120.0625 C89.28326172 120.05798828 88.50402344 120.05347656 87.70117188 120.04882812 C85.80074732 120.03716908 83.90036294 120.01923877 82 120 C82 122.64 82 125.28 82 128 C81.34 128 80.68 128 80 128 C80.07734375 128.93714844 80.1546875 129.87429687 80.234375 130.83984375 C80.22905114 136.13043389 78.17637025 140.70900333 76.25 145.5625 C75.90195312 146.48224609 75.55390625 147.40199219 75.1953125 148.34960938 C73.26674011 153.317469 71.3210465 157.80682995 68 162 C67.34 162 66.68 162 66 162 C65.855625 162.78375 65.71125 163.5675 65.5625 164.375 C65 167 65 167 64 169 C63.34 169 62.68 169 62 169 C61.71769531 169.59554687 61.43539062 170.19109375 61.14453125 170.8046875 C56.79634915 179.14488662 47.38714502 186.8184682 38.95175171 191.0202629 C34.75929446 193.11368999 34.75929446 193.11368999 32.25942993 196.8811909 C31.97206126 199.23284228 31.94458485 201.47066866 32 203.83943176 C31.98908105 204.72983475 31.9781621 205.62023774 31.96691227 206.53762263 C31.94001611 209.52205844 31.97014801 212.50318122 32 215.48754883 C31.99239448 217.62620512 31.98127611 219.76485138 31.96690369 221.9034729 C31.93784862 227.71121683 31.95802779 233.51787679 31.9869194 239.32558274 C32.00877868 245.39417694 31.9855375 251.46259249 31.96704102 257.53117371 C31.93888591 269.02363153 31.95140422 280.51567237 31.97846508 292.00811833 C32.00729693 305.09147886 31.99089344 318.17465962 31.97065353 331.25802195 C31.9300329 358.17211762 31.94633838 385.08593889 32 412 C34.87935068 411.20621175 37.75826962 410.41091204 40.63696289 409.61474609 C41.44680885 409.39165268 42.25665482 409.16855927 43.09104156 408.93870544 C49.75228452 407.09437876 56.31780388 405.02589586 62.86132812 402.80078125 C68.67831311 400.89277104 68.67831311 400.89277104 72 402 C43.98339786 411.7221395 43.98339786 411.7221395 31 414 C30.05753418 414.17587646 29.11506836 414.35175293 28.14404297 414.53295898 C16.14416272 416.46756333 4.11183489 416.3371786 -8.01367188 416.31567383 C-11.72816471 416.31251855 -15.44185532 416.33602504 -19.15625 416.36132812 C-32.73250881 416.39564593 -45.68363166 415.71651447 -59 413 C-58.01 412.67 -57.02 412.34 -56 412 C-56.33 340.39 -56.66 268.78 -57 195 C-59.64 193.68 -62.28 192.36 -65 191 C-71.63447878 186.52490238 -77.00441726 181.06626195 -82.1875 175.00390625 C-83.84720214 172.92500273 -83.84720214 172.92500273 -86 172 C-86.93108736 170.41370302 -87.85313065 168.82154981 -88.734375 167.20703125 C-90.19341649 164.66271506 -91.81228409 162.25385694 -93.4375 159.8125 C-100.71997098 148.32860345 -106.7467904 132.91242854 -106 119 C-106.55872803 119.01571045 -107.11745605 119.0314209 -107.69311523 119.04760742 C-110.2744699 119.11074924 -112.8556613 119.14923704 -115.4375 119.1875 C-116.31599609 119.21263672 -117.19449219 119.23777344 -118.09960938 119.26367188 C-128.08794046 119.37424381 -135.3920086 116.61834586 -143.125 110.25 C-148.39647002 103.92423598 -150.43956116 96.8546282 -150.34375 88.72265625 C-149.37864696 81.07860147 -144.4831787 74.22138237 -139 69 C-134.08460333 65.40336829 -129.46136475 64.86893092 -123.48046875 64.90234375 C-121.9480957 64.90717773 -121.9480957 64.90717773 -120.38476562 64.91210938 C-119.32966797 64.92048828 -118.27457031 64.92886719 -117.1875 64.9375 C-116.11306641 64.94201172 -115.03863281 64.94652344 -113.93164062 64.95117188 C-111.28773643 64.96292256 -108.643861 64.980857 -106 65 C-106 58.73 -106 52.46 -106 46 C-103.215625 45.79375 -100.43125 45.5875 -97.5625 45.375 C-60.01683236 41.90198642 -26.60129048 26.60129048 0 0 Z M-46 144 C-47.72893859 149.8526182 -45.73540026 156.22968403 -43.3203125 161.6171875 C-38.40824296 170.48216508 -30.52445331 176.71365804 -20.9375 179.875 C-11.78055136 182.22401755 -4.57463543 180.85465262 4 177 C8.75294481 174.03542805 12.76355538 171.25679767 15 166 C15.66 166 16.32 166 17 166 C17.6509259 164.75264433 18.29551669 163.50198168 18.9375 162.25 C19.29714844 161.55390625 19.65679687 160.8578125 20.02734375 160.140625 C21.65789995 156.55209169 22.15426762 153.36556766 22.1875 149.4375 C22.20167969 148.67308594 22.21585937 147.90867188 22.23046875 147.12109375 C22.1323375 144.69846497 22.1323375 144.69846497 20 142 C16.88371382 140.96123794 14.68410923 140.86100093 11.41455078 140.83886719 C10.26971222 140.82925964 9.12487366 140.8196521 7.94534302 140.80975342 C6.08907791 140.8033786 6.08907791 140.8033786 4.1953125 140.796875 C2.9240451 140.79117493 1.65277771 140.78547485 0.34298706 140.77960205 C-2.34868958 140.77014866 -5.04025463 140.76325344 -7.73193359 140.75976562 C-11.17412799 140.75428281 -14.61592645 140.73025501 -18.05799675 140.70179367 C-21.34853023 140.67864537 -24.63908399 140.6767163 -27.9296875 140.671875 C-29.16314911 140.6595282 -30.39661072 140.6471814 -31.66744995 140.63446045 C-33.39416428 140.6389621 -33.39416428 140.6389621 -35.15576172 140.64355469 C-36.67107986 140.63808624 -36.67107986 140.63808624 -38.2170105 140.63250732 C-41.47812155 141.06313576 -43.36998878 142.05138685 -46 144 Z " fill="#F7B795" transform="translate(262,84)"/>
<path d="M0 0 C2.4252865 -0.01182125 4.84795884 -0.06104131 7.27270508 -0.11157227 C29.43271946 -0.34035486 48.34366676 8.52466861 64.54418945 23.40209961 C65.86100486 24.70961985 67.13465586 26.06058814 68.3918457 27.42553711 C69.10598633 27.13807617 69.82012695 26.85061523 70.5559082 26.55444336 C73.28522717 25.46797892 76.01788403 24.39882066 78.7668457 23.36303711 C79.66145508 23.02143555 80.55606445 22.67983398 81.4777832 22.32788086 C94.33875096 18.34546323 108.59075767 20.29687928 120.3918457 26.42553711 C124.33957891 28.80976019 127.88206573 31.43755541 131.3918457 34.42553711 C132.12274414 35.02366211 132.85364258 35.62178711 133.60668945 36.23803711 C142.44035557 44.64782289 146.51343251 59.09488546 147.13300228 70.99020004 C147.22541281 75.32155498 147.16640865 79.64158941 147.07543945 83.97241211 C147.06233328 85.84952925 147.05239297 87.72667084 147.04542542 89.6038208 C147.01909356 94.47045685 146.95068833 99.3355571 146.87249756 104.20159912 C146.80001997 109.19660684 146.76873612 114.19187039 146.73364258 119.18725586 C146.6592694 128.93412228 146.53647927 138.67945994 146.3918457 148.42553711 C139.4618457 148.42553711 132.5318457 148.42553711 125.3918457 148.42553711 C125.3918457 141.49553711 125.3918457 134.56553711 125.3918457 127.42553711 C122.0918457 127.09553711 118.7918457 126.76553711 115.3918457 126.42553711 C112.63037109 125.81225586 112.63037109 125.81225586 110.48950195 125.11303711 C109.67151123 124.84692627 108.85352051 124.58081543 108.01074219 124.30664062 C107.16713135 124.01587646 106.32352051 123.7251123 105.4543457 123.42553711 C104.55337158 123.11865967 103.65239746 122.81178223 102.72412109 122.49560547 C82.73186232 115.47970485 66.28547403 105.31132676 50.3918457 91.42553711 C48.95564854 90.19484842 47.51844375 88.96533242 46.0793457 87.73803711 C45.1924707 86.97491211 44.3055957 86.21178711 43.3918457 85.42553711 C42.85817383 85.98241211 42.32450195 86.53928711 41.7746582 87.11303711 C18.17865611 111.28056866 -18.56139969 129.95198464 -52.96362305 130.62084961 C-54.22819336 130.59764648 -55.49276367 130.57444336 -56.7956543 130.55053711 C-59.0437793 130.50928711 -61.2919043 130.46803711 -63.6081543 130.42553711 C-63.6081543 136.36553711 -63.6081543 142.30553711 -63.6081543 148.42553711 C-70.2081543 148.42553711 -76.8081543 148.42553711 -83.6081543 148.42553711 C-83.69913154 139.05348125 -83.77225585 129.6817267 -83.81540298 120.30932617 C-83.83612896 115.9556414 -83.86416606 111.60227876 -83.90991211 107.2487793 C-83.95391307 103.03416863 -83.97740352 98.81986444 -83.98766327 94.6050415 C-83.99495875 93.0105508 -84.0091994 91.41607364 -84.03107452 89.82171631 C-84.16080911 79.95861749 -83.23336805 71.27897042 -80.54876709 61.76538086 C-79.78459946 59.05204281 -79.21305692 56.45634888 -78.7956543 53.67553711 C-74.97974493 36.60095961 -57.31809461 20.17983824 -43.2331543 11.17553711 C-29.06189004 2.80615516 -16.24498021 0.0372926 0 0 Z " fill="#5B5C60" transform="translate(218.608154296875,-0.425537109375)"/>
<path d="M0 0 C0 57.42 0 114.84 0 174 C-7.8953252 174 -7.8953252 174 -11.1015625 173.1875 C-11.82762695 173.00364746 -12.55369141 172.81979492 -13.30175781 172.63037109 C-14.06842773 172.42234863 -14.83509766 172.21432617 -15.625 172 C-16.44838867 171.77779785 -17.27177734 171.5555957 -18.12011719 171.32666016 C-40.0260999 165.1957924 -62.23064018 155.93350845 -81 143 C-82.81003891 141.87104455 -84.62263104 140.74617434 -86.4375 139.625 C-95.50148666 133.84057547 -103.86993816 127.35939755 -111.74609375 120.04296875 C-114.08794056 117.92028958 -116.52976321 115.97068253 -119 114 C-122.65041786 110.8932614 -125.5547529 108.07485147 -126.5859375 103.26953125 C-127.12305968 87.63101251 -119.44171628 73.18829227 -109.50390625 61.61328125 C-97.53493825 49.12148781 -77.00127823 36.83117348 -60 33 C-60 32.34 -60 31.68 -60 31 C-56.86821197 28.81723865 -53.56820516 27.3903313 -50.05639648 25.93261719 C-47.62117209 24.82819392 -45.31149942 23.56188775 -42.97265625 22.265625 C-37.21683006 19.10287866 -31.39762613 16.07563629 -25.5625 13.0625 C-18.24703649 9.27378807 -11.03703688 5.41686933 -4.01171875 1.109375 C-2 0 -2 0 0 0 Z " fill="#5B5C60" transform="translate(206,322)"/>
<path d="M0 0 C3.82215369 1.52886148 7.23509907 3.11573465 10.83984375 5.0546875 C12.5427356 5.9686731 12.5427356 5.9686731 14.2800293 6.90112305 C15.49920434 7.55904841 16.71836085 8.21700813 17.9375 8.875 C19.1923586 9.54943154 20.44732389 10.22366459 21.70239258 10.89770508 C27.62237097 14.08056723 33.53059951 17.28377878 39.421875 20.51953125 C40.400354 21.05658691 41.37883301 21.59364258 42.38696289 22.14697266 C44.19541219 23.14176954 46.00202983 24.13990689 47.80639648 25.14208984 C52.51183694 27.73389357 57.24630259 30.08829136 62.1809082 32.21411133 C63.47100328 32.77146149 64.74302442 33.37151221 66 34 C66 34.66 66 35.32 66 36 C66.886875 36.268125 67.77375 36.53625 68.6875 36.8125 C71.79007439 37.92474365 74.20750624 39.2815423 77 41 C77.7425 41.28875 78.485 41.5775 79.25 41.875 C83.36941219 43.56021408 87.14388259 45.78777416 91 48 C91.84433594 48.46664062 92.68867188 48.93328125 93.55859375 49.4140625 C99.25185963 52.65497793 103.57067347 56.20442425 108 61 C108.825 61.7425 109.65 62.485 110.5 63.25 C120.24347762 73.96782538 126.67250349 88.5582006 126.53515625 103.15625 C125.5362792 108.4641514 121.88484441 111.49694202 118 115 C117.37609375 115.58136719 116.7521875 116.16273438 116.109375 116.76171875 C114.11362068 118.5604133 112.06187099 120.27756137 110 122 C109.15050781 122.74894531 108.30101562 123.49789062 107.42578125 124.26953125 C99.79379084 130.88114641 91.66654412 136.37853197 83.09326172 141.69921875 C81.15908458 142.90114268 79.23720575 144.12061661 77.31640625 145.34375 C60.89124217 155.65952684 43.73144805 163.07031566 25 168 C22.90101597 168.5650087 20.80205872 169.13011693 18.703125 169.6953125 C14.64662815 170.77630034 10.58845318 171.84990195 6.5234375 172.8984375 C5.69763184 173.11161621 4.87182617 173.32479492 4.02099609 173.54443359 C2 174 2 174 0 174 C0 116.58 0 59.16 0 0 Z " fill="#5B5C60" transform="translate(294,322)"/>
<path d="M0 0 C4.04380085 1.34793362 7.60677984 2.69329976 11.4375 4.4375 C30.13781149 12.14567718 53.99345135 13.38770442 73 6 C76.55157128 4.50113725 80.03556856 2.88761415 83.48828125 1.171875 C86 0 86 0 88 0 C88 40.59 88 81.18 88 123 C103.5367174 118.6884497 103.5367174 118.6884497 118.86132812 113.80078125 C124.67831311 111.89277104 124.67831311 111.89277104 128 113 C99.98339786 122.7221395 99.98339786 122.7221395 87 125 C85.58630127 125.2638147 85.58630127 125.2638147 84.14404297 125.53295898 C72.14416272 127.46756333 60.11183489 127.3371786 47.98632812 127.31567383 C44.27183529 127.31251855 40.55814468 127.33602504 36.84375 127.36132812 C23.26749119 127.39564593 10.31636834 126.71651447 -3 124 C-1.515 123.505 -1.515 123.505 0 123 C0 82.41 0 41.82 0 0 Z " fill="#EDEDED" transform="translate(206,373)"/>
<path d="M0 0 C4.48351019 1.09159025 8.83535031 2.53856258 13.22265625 3.96484375 C22.63315437 6.54372896 31.56885217 7.32919425 41.3125 7.25 C43.09491089 7.24093628 43.09491089 7.24093628 44.91333008 7.23168945 C56.25675996 7.10344924 66.4029808 6.23880768 77 2 C80.3 1.34 83.6 0.68 87 0 C87 22.44 87 44.88 87 68 C62.56077486 79.40497173 38.8569166 83.70918663 12.83203125 74.5703125 C2.47991658 70.71987487 2.47991658 70.71987487 0 67 C-0.24050903 64.09565735 -0.24050903 64.09565735 -0.22705078 60.5090332 C-0.22734283 59.8551059 -0.22763489 59.20117859 -0.22793579 58.5274353 C-0.2265437 56.36841511 -0.21098857 54.20974107 -0.1953125 52.05078125 C-0.19158193 50.55291431 -0.18873517 49.05504493 -0.18673706 47.55717468 C-0.17910403 43.61649833 -0.15945845 39.67596962 -0.1373291 35.73535156 C-0.11686353 31.71356198 -0.10773382 27.69174853 -0.09765625 23.66992188 C-0.07621218 15.7798802 -0.04208029 7.88995847 0 0 Z " fill="#F7B895" transform="translate(207,305)"/>
<path d="M0 0 C21 0 21 0 28 2 C28 2.66 28 3.32 28 4 C28.721875 4.061875 29.44375 4.12375 30.1875 4.1875 C34.69596497 5.48994544 36.9417403 8.58898706 39.6875 12.25 C43.17492491 19.55698553 44.07937577 28.00825819 43 36 C41.72624849 39.02960021 40.00457921 41.41529901 38 44 C37.30806838 45.16404381 36.62016353 46.33049674 35.9375 47.5 C35.298125 48.325 34.65875 49.15 34 50 C32.68 50 31.36 50 30 50 C30 50.66 30 51.32 30 52 C20.35517245 57.41051301 11.1814622 56 0 56 C0 37.52 0 19.04 0 0 Z " fill="#E1A88E" transform="translate(344,148)"/>
<path d="M0 0 C9.875 3.375 9.875 3.375 12.92138672 4.42724609 C23.34454017 7.94356397 32.80337047 9.36629707 43.8125 9.3125 C44.96161865 9.30903564 46.1107373 9.30557129 47.29467773 9.30200195 C55.28084936 9.19940439 62.39283092 8.56669369 70 6 C71.28197266 5.58814453 71.28197266 5.58814453 72.58984375 5.16796875 C74.1051026 4.6694314 75.61630738 4.15821416 77.12109375 3.62890625 C79.38268329 2.8719085 81.64690219 2.37953191 84 2 C84 1.34 84 0.68 84 0 C84.99 0 85.98 0 87 0 C87 8.25 87 16.5 87 25 C78.5625 27.4375 78.5625 27.4375 75.90063477 28.20092773 C72.15302324 29.03346483 72.15302324 29.03346483 69 31 C45.918906 36.58676657 21.72149367 33.68859747 0 25 C0 16.75 0 8.5 0 0 Z " fill="#E2A98E" transform="translate(207,280)"/>
<path d="M0 0 C0 17.82 0 35.64 0 54 C-26.5 54 -26.5 54 -37.125 45.25 C-42.39647002 38.92423598 -44.43956116 31.8546282 -44.34375 23.72265625 C-43.37864696 16.07860147 -38.4831787 9.22138237 -33 4 C-23.48227596 -2.96418833 -11.29380503 0 0 0 Z " fill="#E2A88F" transform="translate(156,149)"/>
<path d="M0 0 C1.00897339 0.00326294 1.00897339 0.00326294 2.03833008 0.0065918 C4.08859551 0.00974867 6.13741342 -0.01369197 8.1875 -0.0390625 C9.47720703 -0.03970703 10.76691406 -0.04035156 12.09570312 -0.04101562 C13.28220459 -0.04399658 14.46870605 -0.04697754 15.69116211 -0.05004883 C18.66210938 0.32226562 18.66210938 0.32226562 20.58422852 1.62231445 C21.66210938 3.32226562 21.66210938 3.32226562 21.47460938 6.88476562 C20.66210938 10.32226562 20.66210938 10.32226562 18.66210938 12.32226562 C14.54524264 12.74318421 10.42256271 12.69386203 6.28588867 12.69287109 C4.23531958 12.69724279 2.18690648 12.73354987 0.13671875 12.77148438 C-1.7978418 12.77728516 -1.7978418 12.77728516 -3.77148438 12.78320312 C-4.95798584 12.7914209 -6.1444873 12.79963867 -7.36694336 12.80810547 C-10.33789062 12.32226562 -10.33789062 12.32226562 -12.26000977 10.48876953 C-13.78083729 7.43195787 -13.24950417 5.54797509 -12.33789062 2.32226562 C-8.97932096 -1.03630404 -4.56324636 0.02511041 0 0 Z " fill="#5E5B5D" transform="translate(297.337890625,138.677734375)"/>
<path d="M0 0 C1.00897339 0.0002417 1.00897339 0.0002417 2.03833008 0.00048828 C4.08889917 -0.00388342 6.13731227 -0.04019049 8.1875 -0.078125 C10.12206055 -0.08392578 10.12206055 -0.08392578 12.09570312 -0.08984375 C13.28220459 -0.09806152 14.46870605 -0.1062793 15.69116211 -0.11474609 C18.66210938 0.37109375 18.66210938 0.37109375 20.57641602 2.20458984 C22.1330866 5.31093002 21.72312089 7.1173251 20.66210938 10.37109375 C17.37232388 12.66307066 14.36262058 12.62864666 10.43554688 12.63671875 C8.64117187 12.64058594 8.64117187 12.64058594 6.81054688 12.64453125 C5.5653125 12.63679687 4.32007813 12.6290625 3.03710938 12.62109375 C1.78414062 12.62882813 0.53117188 12.6365625 -0.75976562 12.64453125 C-1.9534375 12.64195312 -3.14710938 12.639375 -4.37695312 12.63671875 C-5.47217285 12.63446289 -6.56739258 12.63220703 -7.69580078 12.62988281 C-10.33789062 12.37109375 -10.33789062 12.37109375 -12.33789062 10.37109375 C-12.60351562 8.49609375 -12.60351562 8.49609375 -12.58789062 6.37109375 C-12.59304687 5.66984375 -12.59820312 4.96859375 -12.60351562 4.24609375 C-11.76194112 -1.69443218 -4.48640948 0.04039788 0 0 Z " fill="#5C5A5D" transform="translate(194.337890625,138.62890625)"/>
<path d="M0 0 C2.67434711 1.05566333 3.69549746 1.60909875 5.375 3.9375 C5.67439499 6.51758034 5.79440289 8.80209923 5.75 11.375 C5.75773438 12.69371094 5.76546875 14.01242188 5.7734375 15.37109375 C5.36822851 18.99811149 5.03972296 20.49381396 2.375 22.9375 C-3.43632075 23.66391509 -3.43632075 23.66391509 -6.3125 21.90625 C-8.3727204 18.8159194 -8.13785231 15.58900714 -8.125 12 C-8.16753906 10.92588867 -8.16753906 10.92588867 -8.2109375 9.83007812 C-8.22531108 5.95280576 -7.95498016 4.28708294 -5.2578125 1.4296875 C-2.625 -0.0625 -2.625 -0.0625 0 0 Z " fill="#4A4441" transform="translate(199.625,157.0625)"/>
<path d="M0 0 C5.44247788 0.48377581 5.44247788 0.48377581 7.6875 2.5625 C9.50098584 5.93040228 9.32455682 9.03189441 9.1875 12.75 C9.17396484 13.44738281 9.16042969 14.14476562 9.14648438 14.86328125 C9.1112945 16.57585541 9.05749155 18.28802941 9 20 C8.34 20 7.68 20 7 20 C6.67 20.99 6.34 21.98 6 23 C2.6875 23.25 2.6875 23.25 -1 23 C-3.52996406 20.6499187 -3.97806056 19.16583055 -4.43359375 15.72265625 C-4.43488281 14.51480469 -4.43617188 13.30695313 -4.4375 12.0625 C-4.45683594 10.85722656 -4.47617187 9.65195313 -4.49609375 8.41015625 C-3.92404987 4.47791758 -2.71392643 2.83215688 0 0 Z " fill="#4F4642" transform="translate(299,157)"/>
<path d="M0 0 C2.5053202 3.7931189 2.22309324 7.59463622 2.125 11.96484375 C2.10751393 13.57519279 2.09027063 15.18554449 2.07324219 16.79589844 C2.06079468 17.63568237 2.04834717 18.47546631 2.03552246 19.34069824 C1.8347999 34.01413824 1.93950058 48.44572108 4 63 C4.22526367 64.640896 4.22526367 64.640896 4.45507812 66.31494141 C4.9538883 69.90001725 5.47136441 73.48170496 6 77.0625 C6.1659668 78.18881836 6.33193359 79.31513672 6.50292969 80.47558594 C6.66696289 81.52649414 6.83099609 82.57740234 7 83.66015625 C7.144375 84.59480713 7.28875 85.52945801 7.4375 86.49243164 C7.98834786 88.94805594 8.87227895 90.76989668 10 93 C10.125 96.25 10.125 96.25 10 99 C-6.28092499 74.57861251 -3.5307538 28.04509323 0 0 Z " fill="#C1BAEE" transform="translate(16,236)"/>
<path d="M0 0 C2.52170416 3.78255624 2.26720692 6.76485768 2.22705078 11.14331055 C2.22734283 11.97280212 2.22763489 12.8022937 2.22793579 13.65692139 C2.22654179 16.40029337 2.21097732 19.14339418 2.1953125 21.88671875 C2.19158262 23.78815055 2.18873553 25.68958427 2.18673706 27.59101868 C2.17909865 32.59698793 2.15944834 37.60284123 2.1373291 42.60876465 C2.11687517 47.71637402 2.10773631 52.82400211 2.09765625 57.93164062 C2.07620268 67.95447804 2.04206419 77.97722938 2 88 C1.34 88 0.68 88 0 88 C-0.1538235 77.11692138 -0.30200476 66.23378201 -0.4429636 55.35052872 C-0.5085926 50.29711956 -0.57617209 45.24375211 -0.64819336 40.19042969 C-0.71761338 35.31460505 -0.78193048 30.43873746 -0.84269524 25.56279755 C-0.86678909 23.70163271 -0.8927282 21.84049083 -0.92053413 19.97937775 C-0.95913647 17.37463468 -0.99120445 14.76988757 -1.02172852 12.16503906 C-1.04114754 11.00841766 -1.04114754 11.00841766 -1.06095886 9.82843018 C-1.09478315 6.40593535 -1.09418615 3.26886397 0 0 Z " fill="#5A5A73" transform="translate(363,60)"/>
<path d="M0 0 C8.38856185 -0.06957382 16.77700273 -0.12284852 25.16578197 -0.15543652 C29.06122736 -0.17107878 32.95647503 -0.19229041 36.85180664 -0.22631836 C40.61248525 -0.25896368 44.37297394 -0.27686385 48.13378334 -0.28463173 C49.56709087 -0.290166 51.00038826 -0.30097321 52.43361473 -0.31719017 C54.44416503 -0.33903055 56.45490728 -0.34022597 58.46557617 -0.34057617 C59.60919113 -0.34723801 60.75280609 -0.35389984 61.93107605 -0.36076355 C65.39699847 0.04666866 67.28381038 0.82140402 70 3 C70.38060051 5.78599571 70.47962905 7.93372751 70.3125 10.6875 C70.28994141 11.38939453 70.26738281 12.09128906 70.24414062 12.81445312 C70.18531647 14.5438833 70.09563389 16.27221438 70 18 C69.34 18 68.68 18 68 18 C68 18.66 68 19.32 68 20 C67.34 20 66.68 20 66 20 C66.165 19.195625 66.33 18.39125 66.5 17.5625 C67.64375028 10.11848472 67.64375028 10.11848472 66 3 C62.87852799 1.95950933 60.68933873 1.86711247 57.41455078 1.85473633 C56.26971222 1.84835648 55.12487366 1.84197662 53.94534302 1.83540344 C52.70783295 1.83429062 51.47032288 1.8331778 50.1953125 1.83203125 C48.9240451 1.82870285 47.65277771 1.82537445 46.34298706 1.82194519 C43.65131129 1.81687793 40.95973646 1.81410474 38.26806641 1.81469727 C34.82596014 1.8147988 31.38406057 1.80115386 27.94200325 1.78392506 C24.65144745 1.77010363 21.36089339 1.77071554 18.0703125 1.76953125 C16.83685089 1.76234573 15.60338928 1.75516022 14.33255005 1.74775696 C13.18140717 1.75083359 12.03026428 1.75391022 10.84423828 1.75708008 C9.83402618 1.75565506 8.82381409 1.75423004 7.7829895 1.75276184 C4.84552675 2.01372326 2.66576747 2.77020129 0 4 C0 2.68 0 1.36 0 0 Z " fill="#F3CEBC" transform="translate(216,224)"/>
<path d="M0 0 C0 0.66 0 1.32 0 2 C-3.25753924 3.93709638 -5.65609928 4.23715445 -9.421875 4.1953125 C-10.95908203 4.18564453 -10.95908203 4.18564453 -12.52734375 4.17578125 C-13.59082031 4.15902344 -14.65429688 4.14226562 -15.75 4.125 C-17.36841797 4.11146484 -17.36841797 4.11146484 -19.01953125 4.09765625 C-21.67991278 4.07411305 -24.33984336 4.04122799 -27 4 C-26.90460938 4.62648437 -26.80921875 5.25296875 -26.7109375 5.8984375 C-26.60007812 6.71570313 -26.48921875 7.53296875 -26.375 8.375 C-26.25898438 9.18710938 -26.14296875 9.99921875 -26.0234375 10.8359375 C-26.01570313 11.55007812 -26.00796875 12.26421875 -26 13 C-26.66 13.66 -27.32 14.32 -28 15 C-28.22861765 16.99223952 -28.45458761 18.98492952 -28.65234375 20.98046875 C-29.12755522 23.74096682 -30.51633041 25.65085649 -32 28 C-32.71401232 31.19395026 -32.71401232 31.19395026 -33 34 C-33.66 34 -34.32 34 -35 34 C-35.12375 34.556875 -35.2475 35.11375 -35.375 35.6875 C-36.05976855 38.22114364 -36.99133763 40.57921032 -38 43 C-38.99 42.67 -39.98 42.34 -41 42 C-40.46375 41.01 -39.9275 40.02 -39.375 39 C-37.25124257 34.74487311 -35.50717629 30.37618142 -33.8125 25.9375 C-33.55065918 25.26525391 -33.28881836 24.59300781 -33.01904297 23.90039062 C-31.40043125 19.58549867 -30.49473961 15.58379225 -30 11 C-29.34 11 -28.68 11 -28 11 C-28 8.36 -28 5.72 -28 3 C-26.31583984 2.92652344 -26.31583984 2.92652344 -24.59765625 2.8515625 C-16.46397151 2.45845105 -7.91752936 0 0 0 Z " fill="#AB8ECB" transform="translate(372,201)"/>
<path d="M0 0 C0.99 0.33 1.98 0.66 3 1 C3 15.19 3 29.38 3 44 C1.515 44.495 1.515 44.495 0 45 C0 30.15 0 15.3 0 0 Z " fill="#A58ECF" transform="translate(203,278)"/>
<path d="M0 0 C0.33 0 0.66 0 1 0 C2.65890989 11.91718322 3.36122381 23.59722177 3.3125 35.625 C3.31233887 36.44518616 3.31217773 37.26537231 3.31201172 38.1104126 C3.29366298 51.59116227 2.3608075 64.70640537 0 78 C-0.33 78 -0.66 78 -1 78 C-0.85679155 75.68733596 -0.71029195 73.37487565 -0.5625 71.0625 C-0.48128906 69.77472656 -0.40007812 68.48695313 -0.31640625 67.16015625 C-0.13102929 64.42488061 0.16420635 61.73234667 0.52734375 59.015625 C1.25739319 52.65688757 1.14914979 46.26015417 1.13037109 39.86889648 C1.12496897 37.67489855 1.13036573 35.48110144 1.13671875 33.28710938 C1.13605862 31.88281205 1.13477882 30.47851485 1.1328125 29.07421875 C1.13168457 27.81182373 1.13055664 26.54942871 1.12939453 25.2487793 C1.02305141 22.57876449 0.69181383 20.54094838 0 18 C-0.07766084 16.55901569 -0.10796367 15.11491371 -0.09765625 13.671875 C-0.09282227 12.47304687 -0.09282227 12.47304687 -0.08789062 11.25 C-0.07951172 10.425 -0.07113281 9.6 -0.0625 8.75 C-0.05798828 7.90953125 -0.05347656 7.0690625 -0.04882812 6.203125 C-0.03707961 4.13538599 -0.01914522 2.06768376 0 0 Z " fill="#D6D0F7" transform="translate(482,229)"/>
<path d="M0 0 C1.20446777 0.01047363 2.40893555 0.02094727 3.64990234 0.03173828 C5.60283203 0.04140625 5.60283203 0.04140625 7.59521484 0.05126953 C8.9754258 0.06798149 10.35563413 0.08491139 11.73583984 0.10205078 C13.12385436 0.11208072 14.51187574 0.12120655 15.89990234 0.12939453 C19.3037201 0.15303215 22.70719491 0.18598211 26.11083984 0.22705078 C26.11083984 0.55705078 26.11083984 0.88705078 26.11083984 1.22705078 C17.53083984 1.55705078 8.95083984 1.88705078 0.11083984 2.22705078 C-0.87916016 4.53705078 -1.86916016 6.84705078 -2.88916016 9.22705078 C6.02083984 9.88705078 14.93083984 10.54705078 24.11083984 11.22705078 C24.11083984 11.55705078 24.11083984 11.88705078 24.11083984 12.22705078 C19.65256058 12.28488118 15.19437705 12.32058933 10.73583984 12.35205078 C9.46482422 12.36880859 8.19380859 12.38556641 6.88427734 12.40283203 C5.67255859 12.40927734 4.46083984 12.41572266 3.21240234 12.42236328 C2.09172363 12.43283691 0.97104492 12.44331055 -0.18359375 12.45410156 C-2.88916016 12.22705078 -2.88916016 12.22705078 -4.88916016 10.22705078 C-5.15478516 8.35205078 -5.15478516 8.35205078 -5.13916016 6.22705078 C-5.14431641 5.52580078 -5.14947266 4.82455078 -5.15478516 4.10205078 C-4.67263078 0.69860815 -3.2401612 0.25463494 0 0 Z " fill="#756258" transform="translate(186.88916015625,138.77294921875)"/>
<path d="M0 0 C4.56216465 -0.14532035 9.12373362 -0.23408477 13.6875 -0.3125 C15.62786133 -0.3753418 15.62786133 -0.3753418 17.60742188 -0.43945312 C19.47817383 -0.46362305 19.47817383 -0.46362305 21.38671875 -0.48828125 C23.10701294 -0.52755737 23.10701294 -0.52755737 24.86206055 -0.56762695 C28.98526075 0.17822541 30.43921983 1.75218842 33 5 C33.625 8.625 33.625 8.625 33 12 C29.17602585 15.04486193 26.1878364 15.35873748 21.38671875 15.29296875 C20.13955078 15.28330078 18.89238281 15.27363281 17.60742188 15.26367188 C16.31384766 15.23853516 15.02027344 15.21339844 13.6875 15.1875 C11.71813477 15.16719727 11.71813477 15.16719727 9.70898438 15.14648438 C6.47223923 15.11117443 3.23632895 15.0618528 0 15 C0 14.67 0 14.34 0 14 C0.77190674 13.97494385 1.54381348 13.9498877 2.33911133 13.92407227 C5.83041181 13.80815993 9.32143922 13.68541176 12.8125 13.5625 C14.02744141 13.52318359 15.24238281 13.48386719 16.49414062 13.44335938 C17.65751953 13.40146484 18.82089844 13.35957031 20.01953125 13.31640625 C21.09307861 13.27974854 22.16662598 13.24309082 23.27270508 13.20532227 C26.09311553 13.10458153 26.09311553 13.10458153 29 12 C30.11003236 7.82464504 30.11003236 7.82464504 28.90698242 3.83496094 C26.24159819 1.27024094 24.45964389 1.45933604 20.80078125 1.390625 C19.59228516 1.35839844 18.38378906 1.32617188 17.13867188 1.29296875 C15.2447168 1.27169922 15.2447168 1.27169922 13.3125 1.25 C12.03826172 1.22035156 10.76402344 1.19070312 9.45117188 1.16015625 C6.30071708 1.08935951 3.1510066 1.03670953 0 1 C0 0.67 0 0.34 0 0 Z " fill="#E2B39B" transform="translate(185,137)"/>
<path d="M0 0 C0.33 0 0.66 0 1 0 C1 22.44 1 44.88 1 68 C-1.97 68.99 -1.97 68.99 -5 70 C-5 69.34 -5 68.68 -5 68 C-4.34 68 -3.68 68 -3 68 C-2.67 66.35 -2.34 64.7 -2 63 C-1.67 63 -1.34 63 -1 63 C-0.67 42.21 -0.34 21.42 0 0 Z " fill="#EBB9A3" transform="translate(293,305)"/>
<path d="M0 0 C1.29679687 -0.020625 2.59359375 -0.04125 3.9296875 -0.0625 C5.16976563 -0.06765625 6.40984375 -0.0728125 7.6875 -0.078125 C8.82574219 -0.0874707 9.96398437 -0.09681641 11.13671875 -0.10644531 C14 0.25 14 0.25 15.89453125 1.77050781 C16.25933594 2.25874023 16.62414062 2.74697266 17 3.25 C16.67 3.91 16.34 4.57 16 5.25 C15.34 4.59 14.68 3.93 14 3.25 C9.86391547 2.85243548 5.72247431 2.92093378 1.56884766 2.93432617 C-0.49239856 2.93748834 -2.5522124 2.91402297 -4.61328125 2.88867188 C-5.90621094 2.88802734 -7.19914062 2.88738281 -8.53125 2.88671875 C-10.31885742 2.88224731 -10.31885742 2.88224731 -12.14257812 2.87768555 C-13.08552734 3.00054932 -14.02847656 3.12341309 -15 3.25 C-17.56687367 7.1003105 -16.83288724 8.83569763 -16 13.25 C-16.99 12.92 -17.98 12.59 -19 12.25 C-20.34293553 5.9015775 -20.34293553 5.9015775 -18.75 2.875 C-14.02671671 -1.51090591 -6.00985782 0.02389605 0 0 Z " fill="#E4B499" transform="translate(302,136.75)"/>
<path d="M0 0 C1 3 1 3 2 10 C15.365 9.01 15.365 9.01 29 8 C29.66 6.02 30.32 4.04 31 2 C31.66 2 32.32 2 33 2 C32.25 8.75 32.25 8.75 30 11 C25.88313326 11.42091859 21.76045334 11.37159641 17.6237793 11.37060547 C15.57321021 11.37497717 13.52479711 11.41128424 11.47460938 11.44921875 C9.54004883 11.45501953 9.54004883 11.45501953 7.56640625 11.4609375 C6.37990479 11.46915527 5.19340332 11.47737305 3.97094727 11.48583984 C1 11 1 11 -0.92602539 9.17041016 C-2.42558636 6.13992662 -1.85353134 4.20074251 -1 1 C-0.67 0.67 -0.34 0.34 0 0 Z " fill="#7E665B" transform="translate(286,140)"/>
<path d="M0 0 C7.92 0.33 15.84 0.66 24 1 C26 10 26 10 26 14 C25.34 14 24.68 14 24 14 C23 11 23 11 23 3 C15.74 3 8.48 3 1 3 C0.67 2.01 0.34 1.02 0 0 Z " fill="#AB90C4" transform="translate(132,202)"/>
<path d="M0 0 C1.09731445 0.07831055 1.09731445 0.07831055 2.21679688 0.15820312 C3.99918622 0.28634876 5.7809257 0.4234816 7.5625 0.5625 C7.5625 0.8925 7.5625 1.2225 7.5625 1.5625 C6.94318604 1.5718457 6.32387207 1.58119141 5.68579102 1.59082031 C2.83143965 1.64509263 -0.02137108 1.72862337 -2.875 1.8125 C-4.33583008 1.83376953 -4.33583008 1.83376953 -5.82617188 1.85546875 C-11.79128163 2.05497075 -16.2744378 2.93494608 -21.58227539 5.71386719 C-23.4375 6.5625 -23.4375 6.5625 -26.4375 6.5625 C-26.4375 8.2125 -26.4375 9.8625 -26.4375 11.5625 C-27.0975 10.9025 -27.7575 10.2425 -28.4375 9.5625 C-29.2625 9.27375 -30.0875 8.985 -30.9375 8.6875 C-33.4375 7.5625 -33.4375 7.5625 -34.75 5.4375 C-34.976875 4.81875 -35.20375 4.2 -35.4375 3.5625 C-34.880625 4.09875 -34.32375 4.635 -33.75 5.1875 C-32.986875 5.64125 -32.22375 6.095 -31.4375 6.5625 C-29.03339156 5.78607864 -29.03339156 5.78607864 -26.4375 4.5625 C-24.65013301 3.86389786 -22.85829635 3.1766396 -21.0625 2.5 C-20.16789062 2.15839844 -19.27328125 1.81679688 -18.3515625 1.46484375 C-12.13433718 -0.46032924 -6.39459536 -0.50899341 0 0 Z " fill="#AFAFB0" transform="translate(318.4375,20.4375)"/>
<path d="M0 0 C6.91902352 1.45663653 13.72725733 3.23839835 20.546875 5.09765625 C23.34122514 5.82785408 26.16790687 6.43358137 29 7 C29 13.93 29 20.86 29 28 C28.67 28 28.34 28 28 28 C27.505 18.595 27.505 18.595 27 9 C16.60939277 6.38423969 16.60939277 6.38423969 6 6 C5.67 5.01 5.34 4.02 5 3 C2.49552484 1.78130071 2.49552484 1.78130071 0 1 C0 0.67 0 0.34 0 0 Z " fill="#E1B29B" transform="translate(315,120)"/>
<path d="M0 0 C3.78671926 1.21715976 5.31282675 3.50849922 7.1171875 6.9609375 C10.19169731 14.06223892 11.06728083 22.35689209 10 30 C8.47729492 31.66259766 8.47729492 31.66259766 7 33 C7.01047363 32.42032471 7.02094727 31.84064941 7.03173828 31.2434082 C7.07348615 28.59981679 7.09938538 25.95629495 7.125 23.3125 C7.14175781 22.40048828 7.15851563 21.48847656 7.17578125 20.54882812 C7.20936169 15.93151773 7.23556185 12.18067669 5 8 C4.34 8 3.68 8 3 8 C2.01 5.36 1.02 2.72 0 0 Z " fill="#CEA3AA" transform="translate(377,154)"/>
<path d="M0 0 C0.33 0 0.66 0 1 0 C1.02578125 1.2065625 1.0515625 2.413125 1.078125 3.65625 C1.13444886 5.27086738 1.1917952 6.88544933 1.25 8.5 C1.26417969 9.29148438 1.27835937 10.08296875 1.29296875 10.8984375 C1.53570765 16.8212667 3.05609289 20.90530576 6 26 C6.67411403 27.32958358 7.34279143 28.6619794 8 30 C2.72037656 26.48025104 0.23922093 22.01734368 -1.59765625 16.0625 C-2.06346249 13.6746777 -2.16895882 11.43260261 -2.1875 9 C-2.20167969 8.154375 -2.21585937 7.30875 -2.23046875 6.4375 C-1.98543096 3.84591384 -1.30584901 2.22975008 0 0 Z " fill="#CFA4AA" transform="translate(114,166)"/>
<path d="M0 0 C3.02217184 4.53325775 3.83006197 9.56149532 5.125 14.8125 C5.40214844 15.89337891 5.67929687 16.97425781 5.96484375 18.08789062 C6.22652344 19.13783203 6.48820312 20.18777344 6.7578125 21.26953125 C6.9964502 22.22448486 7.23508789 23.17943848 7.48095703 24.16333008 C8.03056146 27.16702427 8.08953883 29.95314554 8 33 C3.15068802 25.72603202 2.57618798 19.53902746 3 11 C2.34 11 1.68 11 1 11 C-0.28317892 7.15046324 -0.06643637 4.05261865 0 0 Z " fill="#C0BBED" transform="translate(474,196)"/>
<path d="M0 0 C1.16015625 0.32484375 1.16015625 0.32484375 2.34375 0.65625 C13.62943316 3.6732148 20.75048539 3.14986409 32 0 C31.67 0.66 31.34 1.32 31 2 C30.01 2 29.02 2 28 2 C28 2.66 28 3.32 28 4 C27.34 4 26.68 4 26 4 C26 4.66 26 5.32 26 6 C17.0745681 6.46166027 8.47412346 4.82470782 0 2 C0 1.34 0 0.68 0 0 Z " fill="#FAE1D4" transform="translate(234,261)"/>
<path d="M0 0 C0.33 0 0.66 0 1 0 C0.42683028 6.92049365 -0.97833959 13.2223114 -2.9375 19.875 C-3.33485352 21.27878906 -3.33485352 21.27878906 -3.74023438 22.7109375 C-4.86277335 26.58829298 -5.74202528 29.61303792 -8 33 C-8.31537944 28.68981431 -7.63027135 26.04669083 -5.7890625 22.18359375 C-4.75417639 19.31972576 -4.40758695 16.5154526 -4 13.5 C-3.31548716 8.4705709 -2.30569666 4.50658893 0 0 Z " fill="#C2BDEF" transform="translate(480,308)"/>
<path d="M0 0 C0 0.66 0 1.32 0 2 C-3.25753924 3.93709638 -5.65609928 4.23715445 -9.421875 4.1953125 C-10.95908203 4.18564453 -10.95908203 4.18564453 -12.52734375 4.17578125 C-13.59082031 4.15902344 -14.65429688 4.14226562 -15.75 4.125 C-17.36841797 4.11146484 -17.36841797 4.11146484 -19.01953125 4.09765625 C-21.67991278 4.07411305 -24.33984336 4.04122799 -27 4 C-26.67 6.97 -26.34 9.94 -26 13 C-26.99 13.66 -27.98 14.32 -29 15 C-28.67 11.04 -28.34 7.08 -28 3 C-26.31583984 2.92652344 -26.31583984 2.92652344 -24.59765625 2.8515625 C-16.46397151 2.45845105 -7.91752936 0 0 0 Z " fill="#A089CE" transform="translate(372,201)"/>
<path d="M0 0 C0.66 0 1.32 0 2 0 C2.08115993 3.06303578 2.14057409 6.12390815 2.1875 9.1875 C2.21263672 10.05181641 2.23777344 10.91613281 2.26367188 11.80664062 C2.31942629 16.65727516 2.30647505 20.13599286 -1 24 C-3.875 25 -3.875 25 -7 25 C-9.875 23.5625 -9.875 23.5625 -12 22 C-11.505 20.515 -11.505 20.515 -11 19 C-11 19.66 -11 20.32 -11 21 C-9.54257537 21.08096803 -8.08387193 21.13917774 -6.625 21.1875 C-5.40683594 21.23970703 -5.40683594 21.23970703 -4.1640625 21.29296875 C-3.44992188 21.19628906 -2.73578125 21.09960938 -2 21 C0.06723714 17.89914429 0.24497423 17.27068319 0.1953125 13.76953125 C0.18886719 12.96708984 0.18242187 12.16464844 0.17578125 11.33789062 C0.15902344 10.50451172 0.14226562 9.67113281 0.125 8.8125 C0.11146484 7.5450293 0.11146484 7.5450293 0.09765625 6.25195312 C0.07410703 4.16784757 0.03823647 2.08388783 0 0 Z " fill="#E5B49A" transform="translate(204,158)"/>
<path d="M0 0 C0.33 1.32 0.66 2.64 1 4 C0.34 4 -0.32 4 -1 4 C-1.0825 4.515625 -1.165 5.03125 -1.25 5.5625 C-3.05552766 11.43046488 -6.33833961 16.05551813 -11 20 C-11.99 20 -12.98 20 -14 20 C-13.34 18.68 -12.68 17.36 -12 16 C-11.34 16 -10.68 16 -10 16 C-9.71125 15.401875 -9.4225 14.80375 -9.125 14.1875 C-8 12 -8 12 -6 9 C-5.34 9 -4.68 9 -4 9 C-3.34 6.69 -2.68 4.38 -2 2 C-1.34 2 -0.68 2 0 2 C0 1.34 0 0.68 0 0 Z " fill="#A98ECC" transform="translate(330,244)"/>
<path d="M0 0 C0.625 1.8125 0.625 1.8125 1 4 C0.01 5.485 0.01 5.485 -1 7 C-1.66 7 -2.32 7 -3 7 C-3.33 7.99 -3.66 8.98 -4 10 C-7.71655113 12.62344786 -11.76055646 14.40020998 -16 16 C-16.66 15.67 -17.32 15.34 -18 15 C-16.53626953 14.07767578 -16.53626953 14.07767578 -15.04296875 13.13671875 C-13.75768345 12.32051568 -12.47253432 11.50409816 -11.1875 10.6875 C-10.22360352 10.08131836 -10.22360352 10.08131836 -9.24023438 9.46289062 C-8.61826172 9.06650391 -7.99628906 8.67011719 -7.35546875 8.26171875 C-6.78465576 7.90037842 -6.21384277 7.53903809 -5.62573242 7.16674805 C-2.62427734 5.01267779 -1.18646686 3.55940059 0 0 Z " fill="#C7C1E5" transform="translate(139,54)"/>
<path d="M0 0 C5.22654901 1.47642627 8.16826439 4.82231936 11.8125 8.625 C12.7087207 9.54152344 12.7087207 9.54152344 13.62304688 10.4765625 C15.08895106 11.97764839 16.54542993 13.48792862 18 15 C16.12890625 15.609375 16.12890625 15.609375 14 16 C11.9375 14.25 11.9375 14.25 10 12 C9.484375 11.525625 8.96875 11.05125 8.4375 10.5625 C7 9 7 9 5.5 6.375 C4.16270693 3.70243687 4.16270693 3.70243687 1 3 C0.67 2.01 0.34 1.02 0 0 Z " fill="#C6BFEE" transform="translate(397,83)"/>
<path d="M0 0 C0.33 1.32 0.66 2.64 1 4 C1.66 4 2.32 4 3 4 C3.20496094 5.14339844 3.40992188 6.28679687 3.62109375 7.46484375 C3.8930231 8.95576676 4.16516974 10.44665016 4.4375 11.9375 C4.57220703 12.69224609 4.70691406 13.44699219 4.84570312 14.22460938 C5.24272034 17.91953174 5.24272034 17.91953174 7 21 C7.04080783 22.99958364 7.04254356 25.00045254 7 27 C4.38320165 23.07480248 3.54552235 19.15737144 2.375 14.625 C2.14554688 13.77421875 1.91609375 12.9234375 1.6796875 12.046875 C0.61123983 7.96387855 -0.33308333 4.25996046 0 0 Z " fill="#CBC5F1" transform="translate(19,308)"/>
<path d="M0 0 C0.66 0 1.32 0 2 0 C2.7529365 7.99394289 3.4017071 15.99305886 4 24 C3.67 22.68 3.34 21.36 3 20 C2.34 20 1.68 20 1 20 C0.11722245 15.48184719 -0.10589503 11.22487306 -0.0625 6.625 C-0.05347656 5.37976563 -0.04445313 4.13453125 -0.03515625 2.8515625 C-0.02355469 1.91054688 -0.01195313 0.96953125 0 0 Z " fill="#B7AFE8" transform="translate(17,288)"/>
<path d="M0 0 C3.79698489 2.85279682 6.80208612 5.89309005 9.8125 9.5625 C10.60269531 10.51253906 11.39289063 11.46257812 12.20703125 12.44140625 C14 15 14 15 14 18 C12 16.625 12 16.625 10 15 C10 14.34 10 13.68 10 13 C9.01 12.67 8.02 12.34 7 12 C7 11.01 7 10.02 7 9 C5.68 8.67 4.36 8.34 3 8 C3 7.01 3 6.02 3 5 C2.01 5 1.02 5 0 5 C0 3.35 0 1.7 0 0 Z " fill="#B8B1E8" transform="translate(421,105)"/>
<path d="M0 0 C0.66 0.33 1.32 0.66 2 1 C-0.31 4.3 -2.62 7.6 -5 11 C-6.32 10.67 -7.64 10.34 -9 10 C-11.21771064 10.85790183 -11.21771064 10.85790183 -13 12 C-9.12207712 7.07091854 -5.23883167 3.4576289 0 0 Z " fill="#C1BAEC" transform="translate(105,80)"/>
<path d="M0 0 C1.34247691 3.71418613 0.63869571 6.30996587 -0.375 10.0625 C-0.65085937 11.10535156 -0.92671875 12.14820313 -1.2109375 13.22265625 C-1.76189386 15.16191353 -2.36248359 17.08745077 -3 19 C-3.66 19 -4.32 19 -5 19 C-5.33 19.99 -5.66 20.98 -6 22 C-5.40421223 16.73378394 -4.18691204 12.05591981 -2.4375 7.0625 C-2.20353516 6.37865234 -1.96957031 5.69480469 -1.72851562 4.99023438 C-1.15788171 3.32491499 -0.57972902 1.66217507 0 0 Z " fill="#C1BBEB" transform="translate(29,184)"/>
<path d="M0 0 C0.33 0 0.66 0 1 0 C1.66 4.95 2.32 9.9 3 15 C5.31 15.66 7.62 16.32 10 17 C10 17.66 10 18.32 10 19 C3.62063407 19.36109618 3.62063407 19.36109618 1.28125 18 C-0.75518944 14.82116771 -0.31160535 11.45610577 -0.1875 7.8125 C-0.17396484 7.06291016 -0.16042969 6.31332031 -0.14648438 5.54101562 C-0.11118539 3.69370233 -0.05737917 1.84675934 0 0 Z " fill="#6D574A" transform="translate(192,161)"/>
<path d="M0 0 C0.99 0 1.98 0 3 0 C1.25 6.75 1.25 6.75 -1 9 C-1.70710678 10.64991582 -2.37943989 12.31562256 -3 14 C-3.66 14 -4.32 14 -5 14 C-5 14.66 -5 15.32 -5 16 C-5.66 16 -6.32 16 -7 16 C-5.35433477 10.31497465 -2.70967216 5.23318364 0 0 Z " fill="#A39BDF" transform="translate(41,157)"/>
<path d="M0 0 C0.66 0.99 1.32 1.98 2 3 C1.21625 3.4125 0.4325 3.825 -0.375 4.25 C-3.07818056 5.72411384 -3.07818056 5.72411384 -3.91796875 7.96484375 C-5.24890759 10.46816194 -6.40977665 11.09335596 -8.9375 12.3125 C-9.62714844 12.65925781 -10.31679687 13.00601563 -11.02734375 13.36328125 C-13 14 -13 14 -16 13 C-15.5153125 12.64808594 -15.030625 12.29617187 -14.53125 11.93359375 C-9.45694895 8.19617586 -4.68588372 4.21231037 0 0 Z " fill="#E9B59B" transform="translate(257,89)"/>
<path d="M0 0 C1.45945288 0.08708669 2.91765868 0.19526907 4.375 0.3125 C5.59316406 0.39951172 5.59316406 0.39951172 6.8359375 0.48828125 C9 1 9 1 11 4 C11.13525391 6.17651367 11.13525391 6.17651367 10.9765625 8.66796875 C10.925 9.56064453 10.8734375 10.45332031 10.8203125 11.37304688 C10.75585938 12.30181641 10.69140625 13.23058594 10.625 14.1875 C10.56828125 15.12787109 10.5115625 16.06824219 10.453125 17.03710938 C10.31169923 19.35884909 10.1602967 21.6794993 10 24 C9.67 24 9.34 24 9 24 C9 17.07 9 10.14 9 3 C6.36 2.67 3.72 2.34 1 2 C0.67 1.34 0.34 0.68 0 0 Z " fill="#7B6A63" transform="translate(335,124)"/>
<path d="M0 0 C4.2129476 1.68517904 7.32315889 3.43476202 11 6 C8.04335481 7.4783226 5.25770263 7.06032783 2 7 C2 8.65 2 10.3 2 12 C1.67 12 1.34 12 1 12 C0.67 8.04 0.34 4.08 0 0 Z " fill="#ADA6E7" transform="translate(365,61)"/>
<path d="M0 0 C6.625 -0.25 6.625 -0.25 10 2 C11.051875 2.144375 12.10375 2.28875 13.1875 2.4375 C17.51657655 3.07621621 20.95245415 4.36677974 25 6 C25 6.33 25 6.66 25 7 C16.20753786 6.52897524 8.29384797 3.75783166 0 1 C0 0.67 0 0.34 0 0 Z " fill="#CACACD" transform="translate(174,488)"/>
<path d="M0 0 C2.91829575 2.91829575 2.30055517 5.18875915 2.3125 9.25 C2.32925781 10.55453125 2.34601563 11.8590625 2.36328125 13.203125 C1.8482809 18.5857093 0.35767417 21.80019492 -3.6875 25.375 C-4.450625 25.91125 -5.21375 26.4475 -6 27 C-4.79045172 24.48010774 -3.60207617 22.48503975 -1.875 20.25 C1.60698519 14.40800262 0.28257717 6.53852172 0 0 Z " fill="#B192C4" transform="translate(386,168)"/>
<path d="M0 0 C4.18659858 3.82774727 7.37820862 7.94607874 10 13 C10 13.66 10 14.32 10 15 C8.68 14.67 7.36 14.34 6 14 C6 12.35 6 10.7 6 9 C5.38125 8.731875 4.7625 8.46375 4.125 8.1875 C2 7 2 7 0 4 C0 2.68 0 1.36 0 0 Z " fill="#CCC6EF" transform="translate(441,129)"/>
<path d="M0 0 C0 0.66 0 1.32 0 2 C-2.97850267 4.83258179 -5.8216459 6.87464318 -9.9375 7.3125 C-10.618125 7.209375 -11.29875 7.10625 -12 7 C-12.33 7.99 -12.66 8.98 -13 10 C-13.99 9.34 -14.98 8.68 -16 8 C-14.23174858 6.85018626 -12.46030479 5.70528078 -10.6875 4.5625 C-9.70136719 3.92441406 -8.71523437 3.28632813 -7.69921875 2.62890625 C-5.07082656 1.04274193 -3.10214464 0 0 0 Z " fill="#605E78" transform="translate(171,341)"/>
<path d="M0 0 C0.33 0.99 0.66 1.98 1 3 C0.3503125 3.5878125 0.3503125 3.5878125 -0.3125 4.1875 C-2.15146682 6.0078278 -2.15146682 6.0078278 -3.4375 8.6875 C-3.953125 9.450625 -4.46875 10.21375 -5 11 C-6.32 11 -7.64 11 -9 11 C-9 11.66 -9 12.32 -9 13 C-10.98 13.66 -12.96 14.32 -15 15 C-14.34 14.01 -13.68 13.02 -13 12 C-12.01 12 -11.02 12 -10 12 C-10 11.34 -10 10.68 -10 10 C-9.236875 9.814375 -8.47375 9.62875 -7.6875 9.4375 C-3.93535954 7.43054115 -3.47980485 4.87567937 -2 1 C-1.34 0.67 -0.68 0.34 0 0 Z " fill="#CDA3AF" transform="translate(383,187)"/>
<path d="M0 0 C-1.51553404 3.47775179 -3.5773456 5.9557984 -6.125 8.75 C-7.21167969 9.94882812 -7.21167969 9.94882812 -8.3203125 11.171875 C-8.87460937 11.77515625 -9.42890625 12.3784375 -10 13 C-10.66 12.01 -11.32 11.02 -12 10 C-11.01 10 -10.02 10 -9 10 C-8.67 8.68 -8.34 7.36 -8 6 C-7.01 6 -6.02 6 -5 6 C-5 4.35 -5 2.7 -5 1 C-3 0 -3 0 0 0 Z " fill="#BFB8EC" transform="translate(438,406)"/>
<path d="M0 0 C6.93964566 1.13300337 9.81403505 4.52898198 14 10 C10.04433859 10 8.90085629 8.60390851 5.875 6.125 C4.54082031 5.04605469 4.54082031 5.04605469 3.1796875 3.9453125 C1 2 1 2 0 0 Z " fill="#DDACB3" transform="translate(186,265)"/>
<path d="M0 0 C0.33 0 0.66 0 1 0 C1 2.64 1 5.28 1 8 C0.34 8 -0.32 8 -1 8 C-0.938125 8.99 -0.87625 9.98 -0.8125 11 C-0.78508355 15.46888211 -2.2791773 18.91304608 -4 23 C-5 20 -5 20 -4.125 17.4375 C-2.67004343 12.99179937 -2.34885594 8.6452922 -2 4 C-1.34 4 -0.68 4 0 4 C0 2.68 0 1.36 0 0 Z " fill="#E1B0B1" transform="translate(343,204)"/>
<path d="M0 0 C1.96524451 2.94786676 3.57472183 5.90972937 5.1875 9.0625 C5.73792969 10.12597656 6.28835938 11.18945312 6.85546875 12.28515625 C7.23316406 13.18105469 7.61085938 14.07695312 8 15 C7.67 15.66 7.34 16.32 7 17 C6.7525 16.4225 6.505 15.845 6.25 15.25 C5.09940528 12.89483142 5.09940528 12.89483142 3 11.1875 C0.38569751 8.32810666 -0.23444552 5.75817653 -1 2 C-0.67 1.34 -0.34 0.68 0 0 Z " fill="#AEA5E2" transform="translate(458,157)"/>
<path d="M0 0 C2.34917898 2.15341406 3.82443004 4.21667937 5.25 7.0625 C5.60578125 7.75472656 5.9615625 8.44695312 6.328125 9.16015625 C6.54984375 9.76730469 6.7715625 10.37445313 7 11 C6.67 11.66 6.34 12.32 6 13 C3.38465465 11.2194781 1.02546791 9.4443474 -1 7 C-0.9375 3.125 -0.9375 3.125 0 0 Z " fill="#C1BBEE" transform="translate(451,144)"/>
<path d="M0 0 C2.37616467 2.37616467 3.04068181 4.35349521 4.1875 7.5 C4.55230469 8.4796875 4.91710937 9.459375 5.29296875 10.46875 C6 13 6 13 5 15 C4.34 15 3.68 15 3 15 C2.01 15.495 2.01 15.495 1 16 C1.33 13.03 1.66 10.06 2 7 C1.34 7 0.68 7 0 7 C0 4.69 0 2.38 0 0 Z " fill="#B9B0EB" transform="translate(466,174)"/>
<path d="M0 0 C-0.33 1.32 -0.66 2.64 -1 4 C-8.92 4.495 -8.92 4.495 -17 5 C-13.67560399 3.33780199 -10.92338615 2.32187393 -7.375 1.375 C-6.41335937 1.11460938 -5.45171875 0.85421875 -4.4609375 0.5859375 C-2 0 -2 0 0 0 Z " fill="#DEAD97" transform="translate(203,122)"/>
<path d="M0 0 C0.33 0 0.66 0 1 0 C1.33 3.3 1.66 6.6 2 10 C3.32 10.33 4.64 10.66 6 11 C6 14 6 14 5 17 C2.63344822 15.34341375 1.42958407 14.4528653 0 12 C-0.44572896 7.96746391 -0.29001875 4.04092798 0 0 Z " fill="#6B6B76" transform="translate(80,416)"/>
<path d="M0 0 C7.875 0.875 7.875 0.875 9 2 C9.04063832 3.66617115 9.042721 5.33388095 9 7 C8.01 7.33 7.02 7.66 6 8 C4.02 5.36 2.04 2.72 0 0 Z " fill="#A49AE6" transform="translate(70,416)"/>
<path d="M0 0 C0 0.66 0 1.32 0 2 C-1.11375 2.556875 -1.11375 2.556875 -2.25 3.125 C-5.62211279 5.42416781 -6.48010466 7.56697851 -8.0078125 11.2578125 C-9 13 -9 13 -12 14 C-10.65626597 8.49069046 -7.96769813 4.91378919 -4 1 C-2 0 -2 0 0 0 Z " fill="#CFA4AA" transform="translate(127,152)"/>
<path d="M0 0 C0.66 0 1.32 0 2 0 C1.125 6.875 1.125 6.875 0 8 C-2.86267567 8.07325168 -5.700719 8.09238205 -8.5625 8.0625 C-9.36880859 8.05798828 -10.17511719 8.05347656 -11.00585938 8.04882812 C-13.00393756 8.03700518 -15.00197783 8.01906914 -17 8 C-17 7.67 -17 7.34 -17 7 C-12.05 6.67 -7.1 6.34 -2 6 C-1.34 4.02 -0.68 2.04 0 0 Z " fill="#705F57" transform="translate(317,142)"/>
<path d="M0 0 C0.66 0 1.32 0 2 0 C2 4.95 2 9.9 2 15 C1.34 15 0.68 15 0 15 C0 15.66 0 16.32 0 17 C-0.66 17 -1.32 17 -2 17 C-1.855625 16.443125 -1.71125 15.88625 -1.5625 15.3125 C-0.28453328 10.05863683 0.19646963 5.40291471 0 0 Z " fill="#F0C2AB" transform="translate(284,227)"/>
<path d="M0 0 C8.91 3.96 8.91 3.96 18 8 C14.0672237 9.31092543 12.74746797 8.31783226 9 6.6875 C7.948125 6.23761719 6.89625 5.78773437 5.8125 5.32421875 C3 4 3 4 0 2 C0 1.34 0 0.68 0 0 Z " fill="#DFB39B" transform="translate(297,111)"/>
<path d="M0 0 C0.33 0.99 0.66 1.98 1 3 C-0.23414044 5.34282452 -1.49246493 7.48292584 -2.9375 9.6875 C-3.32357422 10.29400391 -3.70964844 10.90050781 -4.10742188 11.52539062 C-5.06246419 13.02280265 -6.03006086 14.51219401 -7 16 C-7.5534764 13.92446352 -8 12.15634036 -8 10 C-7.01 9.67 -6.02 9.34 -5 9 C-4.30741771 7.00882592 -3.64252365 5.0078864 -3 3 C-1.375 1.125 -1.375 1.125 0 0 Z " fill="#D4CDF2" transform="translate(457,374)"/>
<path d="M0 0 C0 0.66 0 1.32 0 2 C-1.65532623 3.01866229 -3.32260138 4.01810813 -5 5 C-5.33 5.66 -5.66 6.32 -6 7 C-8.64860427 7.59355614 -11.29197322 7.74209269 -14 8 C-11.72402354 5.50447597 -9.39278822 3.93377014 -6.4375 2.3125 C-5.65246094 1.87550781 -4.86742188 1.43851562 -4.05859375 0.98828125 C-2 0 -2 0 0 0 Z " fill="#615E7E" transform="translate(124,366)"/>
<path d="M0 0 C0.33 0.66 0.66 1.32 1 2 C0.00390625 4.6015625 0.00390625 4.6015625 -1.4375 7.625 C-1.91058594 8.62789063 -2.38367188 9.63078125 -2.87109375 10.6640625 C-3.24363281 11.43492187 -3.61617188 12.20578125 -4 13 C-4.66 12.67 -5.32 12.34 -6 12 C-6 10.68 -6 9.36 -6 8 C-5.34 7.67 -4.68 7.34 -4 7 C-3.67 6.01 -3.34 5.02 -3 4 C-2.67 3.01 -2.34 2.02 -2 1 C-1.34 0.67 -0.68 0.34 0 0 Z " fill="#B7B0E4" transform="translate(466,355)"/>
<path d="M0 0 C2 0 4 0 6 0 C5.38722388 2.96175123 4.74627478 4.38058783 3 7 C2.01 6.67 1.02 6.34 0 6 C0 4.02 0 2.04 0 0 Z " fill="#9F95E1" transform="translate(421,417)"/>
<path d="M0 0 C1.9375 0.6875 1.9375 0.6875 4 2 C4.75 4.625 4.75 4.625 5 7 C5.99 7.33 6.98 7.66 8 8 C8 9.65 8 11.3 8 13 C4.32117927 9.71533863 2.24849899 6.33639092 0 2 C0 1.34 0 0.68 0 0 Z " fill="#CEC8F1" transform="translate(45,380)"/>
<path d="M0 0 C0.66 0 1.32 0 2 0 C2.33 0.66 2.66 1.32 3 2 C3.639375 2.268125 4.27875 2.53625 4.9375 2.8125 C7.71459819 4.41143532 8.16619258 5.96797303 9 9 C8.67 9.66 8.34 10.32 8 11 C6.66375099 9.35653302 5.33107149 7.71016314 4 6.0625 C3.2575 5.14597656 2.515 4.22945313 1.75 3.28515625 C0 1 0 1 0 0 Z " fill="#C6C0ED" transform="translate(61,405)"/>
<path d="M0 0 C3.33773709 3.64116773 3.97864902 7.28607242 5 12 C4.34 12 3.68 12 3 12 C2.30062798 10.5682384 1.61587282 9.12932968 0.9375 7.6875 C0.55464844 6.88699219 0.17179687 6.08648437 -0.22265625 5.26171875 C-1 3 -1 3 0 0 Z " fill="#5D5B74" transform="translate(412,397)"/>
<path d="M0 0 C0 4.13534147 -1.36091208 5.87476431 -4 9 C-7.25 9.375 -7.25 9.375 -10 9 C-6.85281112 5.7317654 -3.50647501 2.8689341 0 0 Z " fill="#F9DACA" transform="translate(276,252)"/>
<path d="M0 0 C1.28264727 3.84794181 0.43727514 4.89272212 -1.25 8.5 C-1.90742188 9.93859375 -1.90742188 9.93859375 -2.578125 11.40625 C-3.85951989 13.74373959 -5.00728364 15.26516458 -7 17 C-5.1668733 11.00067626 -2.92678249 5.55079437 0 0 Z " fill="#E8B8AE" transform="translate(337,227)"/>
<path d="M0 0 C1.12894876 0.93274109 2.25300876 1.87140122 3.375 2.8125 C4.00148438 3.33457031 4.62796875 3.85664062 5.2734375 4.39453125 C7 6 7 6 9 9 C4.125 7.25 4.125 7.25 3 5 C0.51587793 4.17195931 -1.35220307 4 -4 4 C-2.68 2.68 -1.36 1.36 0 0 Z " fill="#ECB89F" transform="translate(262,84)"/>
<path d="M0 0 C-1.32 0.33 -2.64 0.66 -4 1 C-4 1.66 -4 2.32 -4 3 C-4.66 3 -5.32 3 -6 3 C-6 3.66 -6 4.32 -6 5 C-8.97 5 -11.94 5 -15 5 C-15 4.67 -15 4.34 -15 4 C-11.535 3.505 -11.535 3.505 -8 3 C-8 2.34 -8 1.68 -8 1 C-2.25 -1.125 -2.25 -1.125 0 0 Z " fill="#F4D0B9" transform="translate(266,262)"/>
<path d="M0 0 C3.79588866 0.54226981 5.47211993 2.20127563 8 5 C7.01 5.495 7.01 5.495 6 6 C6 5.34 6 4.68 6 4 C3.03 4 0.06 4 -3 4 C-2.67 3.34 -2.34 2.68 -2 2 C-1.34 2 -0.68 2 0 2 C0 1.34 0 0.68 0 0 Z " fill="#A8A0E5" transform="translate(381,72)"/>
<path d="M0 0 C2.64 0.33 5.28 0.66 8 1 C8 1.66 8 2.32 8 3 C9.65 3.33 11.3 3.66 13 4 C8.99799622 5.60080151 5.95443764 4.29279692 2 3 C2 2.34 2 1.68 2 1 C1.34 0.67 0.68 0.34 0 0 Z " fill="#CEA4AA" transform="translate(364,149)"/>
<path d="M0 0 C0.66 0 1.32 0 2 0 C2 1.32 2 2.64 2 4 C2.99 4.33 3.98 4.66 5 5 C5 7.64 5 10.28 5 13 C3.09610151 10.14415227 2.30537823 8.0688238 1.375 4.8125 C0.98441406 3.46091797 0.98441406 3.46091797 0.5859375 2.08203125 C0.39257812 1.39496094 0.19921875 0.70789063 0 0 Z " fill="#BBB5E8" transform="translate(28,342)"/>
<path d="M0 0 C0.33 0 0.66 0 1 0 C1.375 2.6875 1.375 2.6875 1 6 C-0.823983 8.06398076 -2.72763839 9.39041053 -5 11 C-4.32902328 6.80639551 -2.1441606 3.59665648 0 0 Z " fill="#D0C9F1" transform="translate(48,144)"/>
<path d="M0 0 C4.95 1.65 9.9 3.3 15 5 C15 5.33 15 5.66 15 6 C8.92671312 6.50610724 5.22771463 5.04157942 0 2 C0 1.34 0 0.68 0 0 Z " fill="#F6E7D6" transform="translate(213,376)"/>
<path d="M0 0 C0.99 0 1.98 0 3 0 C3 4.62 3 9.24 3 14 C2.67 14 2.34 14 2 14 C1.66179834 12.4176994 1.32964061 10.83410625 1 9.25 C0.814375 8.36828125 0.62875 7.4865625 0.4375 6.578125 C0 4 0 4 0 0 Z " fill="#E7B6AB" transform="translate(156,204)"/>
<path d="M0 0 C0.763125 0.0825 1.52625 0.165 2.3125 0.25 C1.0440625 1.2709375 1.0440625 1.2709375 -0.25 2.3125 C-3.125 5.10416667 -3.125 5.10416667 -2.5 9.0625 C-2.0978125 10.6403125 -2.0978125 10.6403125 -1.6875 12.25 C-2.6775 11.92 -3.6675 11.59 -4.6875 11.25 C-6.01717033 4.96428571 -6.01717033 4.96428571 -4.5625 1.8125 C-2.6875 0.25 -2.6875 0.25 0 0 Z " fill="#E5B69F" transform="translate(287.6875,137.75)"/>
<path d="M0 0 C0 3.46877176 -0.61849799 5.82254537 -2 9 C-4 9.8125 -4 9.8125 -6 10 C-6.99 10.495 -6.99 10.495 -8 11 C-6.63629701 8.00779732 -5.05091917 5.70973471 -2.875 3.25 C-2.33617188 2.63640625 -1.79734375 2.0228125 -1.2421875 1.390625 C-0.62730469 0.70226562 -0.62730469 0.70226562 0 0 Z " fill="#C6C0EF" transform="translate(67,118)"/>
<path d="M0 0 C2.31 0.66 4.62 1.32 7 2 C7.33 3.65 7.66 5.3 8 7 C4.46399535 5.08864614 2.21027154 3.37357234 0 0 Z " fill="#8E87CA" transform="translate(397,378)"/>
<path d="M0 0 C-1.28913487 0.67154933 -2.58140204 1.33708859 -3.875 2 C-4.59429687 2.37125 -5.31359375 2.7425 -6.0546875 3.125 C-8 4 -8 4 -10 4 C-9.67 2.68 -9.34 1.36 -9 0 C-5.5657338 -0.85856655 -3.38317487 -0.97591583 0 0 Z " fill="#928BD3" transform="translate(130,363)"/>
<path d="M0 0 C-1.12073862 0.83905565 -2.24674547 1.67107831 -3.375 2.5 C-4.00148437 2.9640625 -4.62796875 3.428125 -5.2734375 3.90625 C-7 5 -7 5 -9 5 C-9 4.01 -9 3.02 -9 2 C-5.62638617 -0.62392187 -4.03085709 -1.27471549 0 0 Z " fill="#63607F" transform="translate(155,351)"/>
<path d="M0 0 C0.66 0.33 1.32 0.66 2 1 C1.04882866 2.1725131 0.08882991 3.33787015 -0.875 4.5 C-1.40867187 5.1496875 -1.94234375 5.799375 -2.4921875 6.46875 C-2.98976563 6.9740625 -3.48734375 7.479375 -4 8 C-4.66 8 -5.32 8 -6 8 C-6 6.68 -6 5.36 -6 4 C-5.34 4 -4.68 4 -4 4 C-4 3.34 -4 2.68 -4 2 C-2.125 0.9375 -2.125 0.9375 0 0 Z " fill="#ECB6AA" transform="translate(320,256)"/>
<path d="M0 0 C0.66 0 1.32 0 2 0 C2 1.98 2 3.96 2 6 C2.66 6 3.32 6 4 6 C4.33 8.64 4.66 11.28 5 14 C2.42924159 10.98552165 1.47792934 8.64020229 0.8125 4.75 C0.65394531 3.85796875 0.49539062 2.9659375 0.33203125 2.046875 C0.22246094 1.37140625 0.11289063 0.6959375 0 0 Z " fill="#EBB4AE" transform="translate(159,218)"/>
<path d="M0 0 C0.66 0.66 1.32 1.32 2 2 C1.63318342 4.93453261 1.13562754 5.86437246 -1 8 C-1.99 8 -2.98 8 -4 8 C-4 7.34 -4 6.68 -4 6 C-3.34 6 -2.68 6 -2 6 C-1.34 4.02 -0.68 2.04 0 0 Z " fill="#F5CCB5" transform="translate(281,244)"/>
<path d="M0 0 C3.08089673 2.77280706 4.68775452 5.06326356 6 9 C5.01 9.33 4.02 9.66 3 10 C2.67 8.02 2.34 6.04 2 4 C1.34 4 0.68 4 0 4 C0 2.68 0 1.36 0 0 Z " fill="#A88FCA" transform="translate(170,246)"/>
<path d="M0 0 C0.66 1.32 1.32 2.64 2 4 C1.34 4 0.68 4 0 4 C-0.33 5.65 -0.66 7.3 -1 9 C-1.33 9 -1.66 9 -2 9 C-2.6875 6.1875 -2.6875 6.1875 -3 3 C-1.5625 1.125 -1.5625 1.125 0 0 Z " fill="#EDB89D" transform="translate(328,242)"/>
<path d="M0 0 C2.1519437 3.22791555 2.20086443 4.28400809 2 8 C1.34 8 0.68 8 0 8 C-0.66 9.32 -1.32 10.64 -2 12 C-1 3.42857143 -1 3.42857143 0 0 Z " fill="#C7C1F5" transform="translate(22,206)"/>
<path d="M0 0 C1.10868317 3.32604951 1.54177532 6.53058454 2 10 C1.01 9.67 0.02 9.34 -1 9 C-1.625 6.1875 -1.625 6.1875 -2 3 C-1.34 2.01 -0.68 1.02 0 0 Z " fill="#766058" transform="translate(286,140)"/>
<path d="M0 0 C-1.23944276 0.86941494 -2.49207059 1.72005457 -3.75 2.5625 C-4.44609375 3.03816406 -5.1421875 3.51382812 -5.859375 4.00390625 C-8 5 -8 5 -10.265625 4.65234375 C-10.83796875 4.43707031 -11.4103125 4.22179687 -12 4 C-10.56988027 3.13353333 -9.13059381 2.28218171 -7.6875 1.4375 C-6.48673828 0.72400391 -6.48673828 0.72400391 -5.26171875 -0.00390625 C-3 -1 -3 -1 0 0 Z " fill="#D3D3D5" transform="translate(189,6)"/>
<path d="M0 0 C4 4.625 4 4.625 4 8 C1.525 7.01 1.525 7.01 -1 6 C-0.67 4.02 -0.34 2.04 0 0 Z " fill="#A68DCC" transform="translate(165,238)"/>
<path d="M0 0 C0.66 0 1.32 0 2 0 C1.67 1.65 1.34 3.3 1 5 C0.34 5 -0.32 5 -1 5 C-1 5.66 -1 6.32 -1 7 C-1.66 7 -2.32 7 -3 7 C-1.125 1.125 -1.125 1.125 0 0 Z " fill="#BAB2E7" transform="translate(37,166)"/>
<path d="M0 0 C3.73487777 0.4979837 5.81237635 0.87491756 9 3 C9 3.66 9 4.32 9 5 C5.22454612 3.90931332 2.52956528 3.0916909 0 0 Z " fill="#77635C" transform="translate(291,107)"/>
<path d="M0 0 C-1.33332095 3.99996286 -3.4957827 4.83782337 -7 7 C-6.61402985 4.20171644 -6.19863427 3.1794116 -4.0625 1.25 C-2 0 -2 0 0 0 Z " fill="#6F5F58" transform="translate(254,91)"/>
<path d="M0 0 C-3.20336822 2.83374881 -5.78087253 3.5205537 -10 4 C-4.4 -2.2 -4.4 -2.2 0 0 Z " fill="#AEA7E7" transform="translate(131,66)"/>
<path d="M0 0 C2.91517292 1.07401108 4.77810176 1.77810176 7 4 C4.69 4.33 2.38 4.66 0 5 C-0.33 4.34 -0.66 3.68 -1 3 C-0.67 2.01 -0.34 1.02 0 0 Z " fill="#858489" transform="translate(337,26)"/>
<path d="M0 0 C0.66 0.33 1.32 0.66 2 1 C1.34 2.32 0.68 3.64 0 5 C-1.65 4.67 -3.3 4.34 -5 4 C-3.36587557 2.29159719 -2.13093906 1.06546953 0 0 Z " fill="#615E7B" transform="translate(180,335)"/>
<path d="M0 0 C0.33 0.99 0.66 1.98 1 3 C-0.65 4.65 -2.3 6.3 -4 8 C-3.6875 5.125 -3.6875 5.125 -3 2 C-2.01 1.34 -1.02 0.68 0 0 Z " fill="#D8A8A5" transform="translate(383,187)"/>
<path d="M0 0 C0.66 0.99 1.32 1.98 2 3 C1.34 4.32 0.68 5.64 0 7 C-0.99 6.34 -1.98 5.68 -3 5 C-2.67 4.01 -2.34 3.02 -2 2 C-1.34 2 -0.68 2 0 2 C0 1.34 0 0.68 0 0 Z " fill="#EDB291" transform="translate(203,153)"/>
<path d="M0 0 C0 0.99 0 1.98 0 3 C0.33 3.99 0.66 4.98 1 6 C0.67 6.66 0.34 7.32 0 8 C-0.66 8 -1.32 8 -2 8 C-2 7.01 -2 6.02 -2 5 C-2.66 4.67 -3.32 4.34 -4 4 C-2.68 2.68 -1.36 1.36 0 0 Z " fill="#AEA3EB" transform="translate(87,96)"/>
<path d="M0 0 C0.33 0 0.66 0 1 0 C1.25 2.3125 1.25 2.3125 1 5 C-1 6.8125 -1 6.8125 -3 8 C-2.45276317 4.62537285 -1.9451 2.91765 0 0 Z " fill="#605E78" transform="translate(90,392)"/>
<path d="M0 0 C0 0.99 0 1.98 0 3 C-2.64 3.33 -5.28 3.66 -8 4 C-2.7826087 0 -2.7826087 0 0 0 Z " fill="#F7E3D7" transform="translate(294,373)"/>
<path d="M0 0 C2.95409701 1.37154504 5.44008376 2.98863724 8 5 C7.01 5.33 6.02 5.66 5 6 C4.34 5.67 3.68 5.34 3 5 C3 4.34 3 3.68 3 3 C2.34 3 1.68 3 1 3 C0.67 2.01 0.34 1.02 0 0 Z " fill="#61607B" transform="translate(373,364)"/>
<path d="M0 0 C2.02045442 0.60183749 4.02111039 1.27306096 6 2 C6.33 2.66 6.66 3.32 7 4 C5.02 4 3.04 4 1 4 C0.67 2.68 0.34 1.36 0 0 Z " fill="#5C5A6F" transform="translate(295,323)"/>
<path d="M0 0 C0.33 0.66 0.66 1.32 1 2 C0.3125 4.0625 0.3125 4.0625 -1 6 C-3.125 6.75 -3.125 6.75 -5 7 C-3.70700306 4.11562221 -2.34058637 2.12780579 0 0 Z " fill="#B9B2E7" transform="translate(73,111)"/>
</svg>
